<svg xmlns="http://www.w3.org/2000/svg" xmlns:xlink="http://www.w3.org/1999/xlink" width="454.588" height="43.343" viewBox="0 0 454.588 43.343">
  <defs>
    <clipPath id="clip-path">
      <rect id="Rectangle_114" data-name="Rectangle 114" width="454.588" height="43.343" transform="translate(18.766 24.908)" fill="none"/>
    </clipPath>
  </defs>
  <g id="aha-logo" transform="translate(-18.766 -24.908)">
    <path id="Path_1576" data-name="Path 1576" d="M126.546,29.194h-.064l-5.641,14.07h11.153l-5.448-14.07ZM117.54,51.437h-.706L126.1,28.553h.833l9.039,22.884h-.7L132.251,43.9H120.584l-3.044,7.532Z" fill="#050304"/>
    <path id="Path_1577" data-name="Path 1577" d="M141.354,51.437V48.3h.64v3.14Z" fill="#050304"/>
    <path id="Path_1578" data-name="Path 1578" d="M150.1,51.437h-.641V28.553h.641V39.194h16.025V28.553h.641V51.437h-.641v-11.6H150.1v11.6Z" fill="#050304"/>
    <path id="Path_1579" data-name="Path 1579" d="M182.859,41.757a2.008,2.008,0,0,1-.994.69,8.031,8.031,0,0,1-1.539.368,16.161,16.161,0,0,1-1.874.16q-1.011.033-1.972.1a15.373,15.373,0,0,0-1.874.24,4.463,4.463,0,0,0-1.62.641,3.284,3.284,0,0,0-1.121,1.282,4.7,4.7,0,0,0-.416,2.132,4.215,4.215,0,0,0,.24,1.394,2.954,2.954,0,0,0,.818,1.218,4.447,4.447,0,0,0,1.489.865,6.573,6.573,0,0,0,2.26.337,7.086,7.086,0,0,0,2.853-.545,6.469,6.469,0,0,0,2.1-1.426,5.9,5.9,0,0,0,1.282-2.035,6.717,6.717,0,0,0,.433-2.372V41.757ZM172.314,37.9a4.965,4.965,0,0,1,1.2-1.747A5.562,5.562,0,0,1,175.439,35a7.772,7.772,0,0,1,2.676-.418,9.255,9.255,0,0,1,2.067.225,4.436,4.436,0,0,1,1.715.785,4.1,4.1,0,0,1,1.186,1.459,5.277,5.277,0,0,1,.48,2.243V49.771a1.067,1.067,0,0,0,.193.7.957.957,0,0,0,.513.306,2.4,2.4,0,0,0,.689.063c.245-.01.475-.027.689-.047v.64h-.962a2.247,2.247,0,0,1-1.233-.336,1.387,1.387,0,0,1-.529-1.267V47.687h-.064a5.134,5.134,0,0,1-.818,1.539,5.975,5.975,0,0,1-1.41,1.314,7.263,7.263,0,0,1-1.94.913,8.006,8.006,0,0,1-2.371.336,6.614,6.614,0,0,1-4.006-1.106,3.846,3.846,0,0,1-1.507-3.316,5.245,5.245,0,0,1,.5-2.468,3.919,3.919,0,0,1,1.3-1.458,5.147,5.147,0,0,1,1.827-.738,15.15,15.15,0,0,1,2.051-.273q1.7-.094,2.917-.175a9.01,9.01,0,0,0,2-.321,2.17,2.17,0,0,0,1.154-.737,2.369,2.369,0,0,0,.369-1.426,9.822,9.822,0,0,0-.129-1.539,3.344,3.344,0,0,0-.625-1.474,3.592,3.592,0,0,0-1.458-1.106,6.437,6.437,0,0,0-2.6-.433,5.917,5.917,0,0,0-4.038,1.267,4.99,4.99,0,0,0-1.6,3.573h-.641a6.586,6.586,0,0,1,.481-2.163Z" fill="#050304"/>
    <path id="Path_1580" data-name="Path 1580" d="M188.883,51.437V34.963h.641v4.07h.064a6.418,6.418,0,0,1,.705-1.747,4.909,4.909,0,0,1,1.283-1.425,6.3,6.3,0,0,1,1.906-.962,7.946,7.946,0,0,1,2.58-.321v.641a6.2,6.2,0,0,0-2.932.465,5.563,5.563,0,0,0-2.036,1.539,6.45,6.45,0,0,0-1.185,2.259,9.08,9.08,0,0,0-.385,2.628v9.327Z" fill="#050304"/>
    <path id="Path_1581" data-name="Path 1581" d="M198.995,46.212a7.64,7.64,0,0,0,1.3,2.549,6.43,6.43,0,0,0,2.131,1.763,6.277,6.277,0,0,0,2.933.657,6.206,6.206,0,0,0,2.9-.657,6.44,6.44,0,0,0,2.131-1.763,7.64,7.64,0,0,0,1.3-2.549,10.585,10.585,0,0,0,0-5.993,7.663,7.663,0,0,0-1.3-2.548,6.607,6.607,0,0,0-2.131-1.778,6.081,6.081,0,0,0-2.9-.674,6.151,6.151,0,0,0-2.933.674,6.6,6.6,0,0,0-2.131,1.778,7.663,7.663,0,0,0-1.3,2.548,10.561,10.561,0,0,0,0,5.993Zm-.593-6.265a8.256,8.256,0,0,1,1.426-2.74,7.185,7.185,0,0,1,2.323-1.907,6.818,6.818,0,0,1,3.206-.722,6.744,6.744,0,0,1,3.173.722,7.206,7.206,0,0,1,2.323,1.907,8.274,8.274,0,0,1,1.426,2.74,11.241,11.241,0,0,1,0,6.506,8.269,8.269,0,0,1-1.426,2.741,7.046,7.046,0,0,1-2.323,1.891,6.962,6.962,0,0,1-3.206.7,6.884,6.884,0,0,1-3.173-.7,7.026,7.026,0,0,1-2.323-1.891,8.251,8.251,0,0,1-1.426-2.741,11.241,11.241,0,0,1,0-6.506Z" fill="#050304"/>
    <path id="Path_1582" data-name="Path 1582" d="M217.664,28.553V51.437h-.641V28.553Z" fill="#050304"/>
    <path id="Path_1583" data-name="Path 1583" d="M233.785,37.286a6.145,6.145,0,0,0-4.84-2.067,5.561,5.561,0,0,0-2.885.722,6.144,6.144,0,0,0-1.987,1.858,8.214,8.214,0,0,0-1.137,2.564,11.417,11.417,0,0,0-.369,2.869,11.208,11.208,0,0,0,.4,3.013,8.113,8.113,0,0,0,1.186,2.547,5.678,5.678,0,0,0,1.988,1.748,5.873,5.873,0,0,0,2.8.641,6.073,6.073,0,0,0,2.837-.641,6.285,6.285,0,0,0,2.083-1.732,7.88,7.88,0,0,0,1.3-2.531,10.165,10.165,0,0,0,.45-3.045,8.711,8.711,0,0,0-1.827-5.946Zm2.468-8.733V51.437h-.641V46.822h-.064a6.973,6.973,0,0,1-2.356,3.589,7.154,7.154,0,0,1-7.179.738,6.492,6.492,0,0,1-2.212-1.78,8.023,8.023,0,0,1-1.394-2.707,12.222,12.222,0,0,1-.017-6.731,8.712,8.712,0,0,1,1.347-2.756,6.58,6.58,0,0,1,2.2-1.891,6.276,6.276,0,0,1,3.013-.706,6.422,6.422,0,0,1,6.6,5h.064V28.553Z" fill="#050304"/>
    <path id="Path_1584" data-name="Path 1584" d="M249.777,35.219v7.789h7.757v.64h-7.757v7.789h-.64V43.648h-7.757v-.64h7.757V35.219Z" fill="#050304"/>
    <path id="Path_1585" data-name="Path 1585" d="M270.033,29.194h-.064l-5.641,14.07h11.153l-5.448-14.07Zm-9.006,22.243h-.705l9.263-22.884h.833l9.038,22.884h-.7L275.738,43.9H264.071l-3.044,7.532Z" fill="#050304"/>
    <path id="Path_1586" data-name="Path 1586" d="M292.822,37.72a3.733,3.733,0,0,0-1.091-1.427,4.5,4.5,0,0,0-1.683-.817,8.515,8.515,0,0,0-2.163-.257,6.55,6.55,0,0,0-2.725.465,4.1,4.1,0,0,0-1.473,1.058,2.831,2.831,0,0,0-.608,1.17,4.326,4.326,0,0,0-.13.8,3.055,3.055,0,0,0,.5,1.875,3.16,3.16,0,0,0,1.33,1.009,14.072,14.072,0,0,0,1.875.61q1.008.256,2.355.608.963.258,1.906.529a6.472,6.472,0,0,1,1.7.754,3.9,3.9,0,0,1,1.217,1.218,3.545,3.545,0,0,1,.464,1.922,3.984,3.984,0,0,1-.527,2.115,4.38,4.38,0,0,1-1.38,1.412,5.922,5.922,0,0,1-1.921.784,9.749,9.749,0,0,1-2.133.24,7.471,7.471,0,0,1-4.982-1.442,5.675,5.675,0,0,1-1.684-4.551h.64a5.028,5.028,0,0,0,1.555,4.086,6.8,6.8,0,0,0,4.471,1.3,8.527,8.527,0,0,0,1.843-.209,5.558,5.558,0,0,0,1.715-.673,4.01,4.01,0,0,0,1.267-1.2,3.143,3.143,0,0,0,.5-1.8,2.909,2.909,0,0,0-.5-1.763,3.938,3.938,0,0,0-1.282-1.105,7.538,7.538,0,0,0-1.812-.689q-1.026-.256-2.082-.513-1.186-.288-2.084-.545a11.316,11.316,0,0,1-1.6-.577,3.18,3.18,0,0,1-1.507-1.249,4.16,4.16,0,0,1-.481-2.148,3.857,3.857,0,0,1,.29-1.41,3.581,3.581,0,0,1,.961-1.346,5.175,5.175,0,0,1,1.732-.994,7.618,7.618,0,0,1,2.6-.385,6.913,6.913,0,0,1,4.359,1.251,4.767,4.767,0,0,1,1.6,4.006H293.2a5.216,5.216,0,0,0-.383-2.115Z" fill="#050304"/>
    <path id="Path_1587" data-name="Path 1587" d="M309.263,37.72a3.721,3.721,0,0,0-1.09-1.427,4.514,4.514,0,0,0-1.682-.817,8.528,8.528,0,0,0-2.164-.257,6.549,6.549,0,0,0-2.726.465,4.1,4.1,0,0,0-1.473,1.058,2.859,2.859,0,0,0-.609,1.17,4.27,4.27,0,0,0-.128.8,3.069,3.069,0,0,0,.5,1.875,3.172,3.172,0,0,0,1.33,1.009,14.136,14.136,0,0,0,1.876.61q1.008.256,2.356.608c.64.172,1.277.348,1.907.529a6.5,6.5,0,0,1,1.7.754,3.877,3.877,0,0,1,1.217,1.218,3.554,3.554,0,0,1,.465,1.922,3.966,3.966,0,0,1-.529,2.115,4.344,4.344,0,0,1-1.378,1.412,5.946,5.946,0,0,1-1.922.784,9.754,9.754,0,0,1-2.132.24,7.473,7.473,0,0,1-4.983-1.442,5.678,5.678,0,0,1-1.684-4.551h.642a5.024,5.024,0,0,0,1.554,4.086,6.8,6.8,0,0,0,4.471,1.3,8.548,8.548,0,0,0,1.843-.209,5.563,5.563,0,0,0,1.714-.673,4,4,0,0,0,1.267-1.2,3.144,3.144,0,0,0,.5-1.8,2.909,2.909,0,0,0-.5-1.763,3.928,3.928,0,0,0-1.282-1.105,7.562,7.562,0,0,0-1.811-.689q-1.027-.256-2.084-.513-1.185-.288-2.083-.545a11.408,11.408,0,0,1-1.6-.577,3.17,3.17,0,0,1-1.507-1.249,4.181,4.181,0,0,1-.479-2.148,3.893,3.893,0,0,1,.288-1.41A3.554,3.554,0,0,1,300,35.957a5.144,5.144,0,0,1,1.73-.994,7.628,7.628,0,0,1,2.6-.385,6.917,6.917,0,0,1,4.359,1.251,4.767,4.767,0,0,1,1.6,4.006h-.643a5.2,5.2,0,0,0-.383-2.115Z" fill="#050304"/>
    <path id="Path_1588" data-name="Path 1588" d="M315.56,46.212a7.658,7.658,0,0,0,1.3,2.549,6.434,6.434,0,0,0,2.132,1.763,6.277,6.277,0,0,0,2.933.657,6.2,6.2,0,0,0,2.9-.657,6.434,6.434,0,0,0,2.132-1.763,7.621,7.621,0,0,0,1.3-2.549,10.561,10.561,0,0,0,0-5.993,7.645,7.645,0,0,0-1.3-2.548,6.6,6.6,0,0,0-2.132-1.778,6.074,6.074,0,0,0-2.9-.674,6.151,6.151,0,0,0-2.933.674,6.6,6.6,0,0,0-2.132,1.778,7.682,7.682,0,0,0-1.3,2.548,10.608,10.608,0,0,0,0,5.993Zm-.593-6.265a8.273,8.273,0,0,1,1.426-2.74,7.2,7.2,0,0,1,2.325-1.907,7.4,7.4,0,0,1,6.378,0,7.2,7.2,0,0,1,2.323,1.907,8.235,8.235,0,0,1,1.425,2.74,11.218,11.218,0,0,1,0,6.506,8.23,8.23,0,0,1-1.425,2.741,7.036,7.036,0,0,1-2.323,1.891,6.964,6.964,0,0,1-3.205.7,6.884,6.884,0,0,1-3.173-.7,7.043,7.043,0,0,1-2.325-1.891,8.269,8.269,0,0,1-1.426-2.741,11.24,11.24,0,0,1,0-6.506Z" fill="#050304"/>
    <path id="Path_1589" data-name="Path 1589" d="M346.184,48.311a5.958,5.958,0,0,1-1.426,1.876,6.324,6.324,0,0,1-2.052,1.186,7.657,7.657,0,0,1-2.579.416A7.123,7.123,0,0,1,337,51.133a6.707,6.707,0,0,1-2.292-1.78,7.826,7.826,0,0,1-1.411-2.612,10.335,10.335,0,0,1-.48-3.188,12.293,12.293,0,0,1,.464-3.413,8.458,8.458,0,0,1,1.412-2.854,6.9,6.9,0,0,1,2.4-1.97,7.47,7.47,0,0,1,3.414-.738,6.941,6.941,0,0,1,2.211.353,5.979,5.979,0,0,1,1.891,1.026,5.643,5.643,0,0,1,1.394,1.682,6.314,6.314,0,0,1,.722,2.324h-.641a6.011,6.011,0,0,0-.705-2.1,5.286,5.286,0,0,0-1.251-1.475,5,5,0,0,0-1.666-.881,6.573,6.573,0,0,0-1.955-.289,6.763,6.763,0,0,0-3.317.754,6.219,6.219,0,0,0-2.179,1.955,8.283,8.283,0,0,0-1.187,2.692,12.217,12.217,0,0,0-.368,2.933,9.587,9.587,0,0,0,.433,2.884,7.56,7.56,0,0,0,1.265,2.437,6.1,6.1,0,0,0,2.084,1.682,6.38,6.38,0,0,0,2.885.625,6.887,6.887,0,0,0,2.275-.369,5.666,5.666,0,0,0,3.2-2.756,5.678,5.678,0,0,0,.609-2.227h.642a7.052,7.052,0,0,1-.674,2.482Z" fill="#050304"/>
    <path id="Path_1590" data-name="Path 1590" d="M351.216,51.437V34.963h.641V51.437Zm0-19.647V28.553h.641V31.79Z" fill="#050304"/>
    <path id="Path_1591" data-name="Path 1591" d="M367.977,41.757a1.99,1.99,0,0,1-.994.69,8.008,8.008,0,0,1-1.537.368,16.2,16.2,0,0,1-1.875.16q-1.011.033-1.971.1a15.365,15.365,0,0,0-1.875.24,4.439,4.439,0,0,0-1.618.641,3.271,3.271,0,0,0-1.122,1.282,4.7,4.7,0,0,0-.418,2.132,4.19,4.19,0,0,0,.241,1.394,2.96,2.96,0,0,0,.817,1.218,4.462,4.462,0,0,0,1.49.865,6.575,6.575,0,0,0,2.261.337,7.081,7.081,0,0,0,2.852-.545,6.469,6.469,0,0,0,2.1-1.426,5.87,5.87,0,0,0,1.282-2.035,6.694,6.694,0,0,0,.432-2.372V41.757ZM357.432,37.9a4.973,4.973,0,0,1,1.2-1.747A5.539,5.539,0,0,1,360.559,35a7.764,7.764,0,0,1,2.676-.418,9.246,9.246,0,0,1,2.066.225,4.436,4.436,0,0,1,1.715.785,4.1,4.1,0,0,1,1.186,1.459,5.291,5.291,0,0,1,.481,2.243V49.771a1.067,1.067,0,0,0,.192.7.961.961,0,0,0,.512.306,2.415,2.415,0,0,0,.69.063c.245-.01.475-.027.689-.047v.64H369.8a2.254,2.254,0,0,1-1.235-.336,1.389,1.389,0,0,1-.529-1.267V47.687h-.064a5.086,5.086,0,0,1-.817,1.539,5.975,5.975,0,0,1-1.41,1.314,7.265,7.265,0,0,1-1.938.913,8.027,8.027,0,0,1-2.372.336,6.62,6.62,0,0,1-4.008-1.106,3.85,3.85,0,0,1-1.505-3.316,5.245,5.245,0,0,1,.5-2.468,3.9,3.9,0,0,1,1.3-1.458,5.159,5.159,0,0,1,1.828-.738,15.129,15.129,0,0,1,2.051-.273q1.7-.094,2.916-.175a9.03,9.03,0,0,0,2-.321,2.178,2.178,0,0,0,1.154-.737,2.376,2.376,0,0,0,.367-1.426,9.812,9.812,0,0,0-.127-1.539,3.356,3.356,0,0,0-.625-1.474,3.6,3.6,0,0,0-1.459-1.106,6.432,6.432,0,0,0-2.6-.433,5.92,5.92,0,0,0-4.039,1.267,4.986,4.986,0,0,0-1.6,3.573h-.642a6.61,6.61,0,0,1,.48-2.163Z" fill="#050304"/>
    <path id="Path_1592" data-name="Path 1592" d="M375.766,48.232a3.975,3.975,0,0,0,.208,1.442,1.851,1.851,0,0,0,.529.769,1.377,1.377,0,0,0,.705.3,5.841,5.841,0,0,0,.769.05c.32,0,.609-.006.865-.016a1.816,1.816,0,0,0,.545-.082v.642c-.191.022-.38.042-.561.064s-.517.032-1.008.032a2.873,2.873,0,0,1-1.907-.656,3.037,3.037,0,0,1-.785-2.42V35.6h-3.013v-.641h3.013V29.771h.64v5.192h3.718V35.6h-3.718V48.232Z" fill="#050304"/>
    <path id="Path_1593" data-name="Path 1593" d="M395.732,39.819a7.123,7.123,0,0,0-1.233-2.388,5.828,5.828,0,0,0-2.036-1.618,6.356,6.356,0,0,0-2.82-.594,6.206,6.206,0,0,0-2.515.513,5.947,5.947,0,0,0-2.052,1.491,7.706,7.706,0,0,0-1.426,2.355,9.931,9.931,0,0,0-.642,3.109H396.15a9.743,9.743,0,0,0-.418-2.868Zm-12.323,6.6a7.262,7.262,0,0,0,1.138,2.485,5.409,5.409,0,0,0,1.987,1.666,6.617,6.617,0,0,0,2.98.609,6.707,6.707,0,0,0,4.311-1.363,6.164,6.164,0,0,0,2.132-4.086h.642a6.568,6.568,0,0,1-2.276,4.47,7.208,7.208,0,0,1-4.743,1.587,7.376,7.376,0,0,1-3.287-.608,5.789,5.789,0,0,1-2.227-1.812,8,8,0,0,1-1.282-2.756,13.428,13.428,0,0,1-.416-3.413,10.263,10.263,0,0,1,.608-3.654,8.549,8.549,0,0,1,1.6-2.708,6.754,6.754,0,0,1,5-2.26,7,7,0,0,1,3.316.738,6.519,6.519,0,0,1,2.275,1.955,8.124,8.124,0,0,1,1.283,2.788,11.411,11.411,0,0,1,.336,3.269H383.008a13.378,13.378,0,0,0,.4,3.093Z" fill="#050304"/>
    <path id="Path_1594" data-name="Path 1594" d="M411.31,37.72a3.724,3.724,0,0,0-1.091-1.427,4.5,4.5,0,0,0-1.682-.817,8.525,8.525,0,0,0-2.163-.257,6.546,6.546,0,0,0-2.726.465,4.1,4.1,0,0,0-1.473,1.058,2.859,2.859,0,0,0-.609,1.17,4.478,4.478,0,0,0-.129.8,3.055,3.055,0,0,0,.5,1.875,3.172,3.172,0,0,0,1.33,1.009,14.168,14.168,0,0,0,1.875.61q1.01.256,2.357.608.96.258,1.906.529a6.5,6.5,0,0,1,1.7.754,3.887,3.887,0,0,1,1.217,1.218,3.554,3.554,0,0,1,.465,1.922,3.966,3.966,0,0,1-.529,2.115,4.344,4.344,0,0,1-1.378,1.412,5.951,5.951,0,0,1-1.923.784,9.74,9.74,0,0,1-2.132.24,7.474,7.474,0,0,1-4.983-1.442,5.681,5.681,0,0,1-1.682-4.551h.641a5.021,5.021,0,0,0,1.555,4.086,6.8,6.8,0,0,0,4.469,1.3,8.557,8.557,0,0,0,1.844-.209,5.582,5.582,0,0,0,1.714-.673,4.01,4.01,0,0,0,1.267-1.2,3.144,3.144,0,0,0,.5-1.8,2.909,2.909,0,0,0-.5-1.763,3.932,3.932,0,0,0-1.283-1.105,7.546,7.546,0,0,0-1.809-.689q-1.029-.256-2.084-.513-1.187-.288-2.084-.545a11.362,11.362,0,0,1-1.6-.577,3.167,3.167,0,0,1-1.506-1.249,4.171,4.171,0,0,1-.48-2.148,3.852,3.852,0,0,1,.288-1.41,3.573,3.573,0,0,1,.962-1.346,5.174,5.174,0,0,1,1.73-.994,7.638,7.638,0,0,1,2.6-.385,6.915,6.915,0,0,1,4.359,1.251,4.767,4.767,0,0,1,1.6,4.006h-.641a5.2,5.2,0,0,0-.384-2.115Z" fill="#050304"/>
    <path id="Path_1595" data-name="Path 1595" d="M420.413,51.437a7.5,7.5,0,0,1-.3,2.34A2.8,2.8,0,0,1,419,55.219v-.641a2.374,2.374,0,0,0,.594-1.138,8.955,8.955,0,0,0,.175-2V48.3h.643v3.14Z" fill="#050304"/>
    <path id="Path_1596" data-name="Path 1596" d="M444.814,51.437H434.7V34.91h.462V50.975h9.652v.462Z" fill="#050304"/>
    <path id="Path_1597" data-name="Path 1597" d="M457.1,51.437H446.991V34.91h.462V50.975H457.1v.462Z" fill="#050304"/>
    <path id="Path_1598" data-name="Path 1598" d="M472.567,47.722a7.288,7.288,0,0,1-1.492,2.165A6.6,6.6,0,0,1,468.91,51.3a7.438,7.438,0,0,1-2.824.51,7.1,7.1,0,0,1-3.021-.638,6.991,6.991,0,0,1-2.361-1.759,8.154,8.154,0,0,1-1.539-2.685,10.1,10.1,0,0,1-.556-3.414,11.634,11.634,0,0,1,.428-3.067,8.687,8.687,0,0,1,1.354-2.835,7.163,7.163,0,0,1,2.409-2.083,7.365,7.365,0,0,1,3.587-.811,7.038,7.038,0,0,1,2.87.544,6.7,6.7,0,0,1,2.048,1.366,5.919,5.919,0,0,1,1.239,1.747,4.493,4.493,0,0,1,.439,1.691h-.462a4.484,4.484,0,0,0-.532-1.771,5.522,5.522,0,0,0-1.262-1.563,6.408,6.408,0,0,0-1.9-1.123,7.421,7.421,0,0,0-5.879.394,7,7,0,0,0-2.257,2.06,8.491,8.491,0,0,0-1.239,2.7,10.913,10.913,0,0,0-.382,2.754,9.944,9.944,0,0,0,.463,3.032,7.721,7.721,0,0,0,1.366,2.57,6.829,6.829,0,0,0,2.21,1.782,6.414,6.414,0,0,0,2.975.671,6.953,6.953,0,0,0,2.661-.485,6.184,6.184,0,0,0,2.038-1.343,6.816,6.816,0,0,0,1.388-2.037,9.2,9.2,0,0,0,.719-2.547h.462a9.824,9.824,0,0,1-.787,2.767Z" fill="#050304"/>
    <path id="Path_1599" data-name="Path 1599" d="M78.572,33.758,98.453,50.965V42.343L78.572,25.137v8.621Z" fill="#fff"/>
    <g id="Group_137" data-name="Group 137">
      <g id="Group_136" data-name="Group 136" clip-path="url(#clip-path)">
        <path id="Path_1600" data-name="Path 1600" d="M78.572,33.758,98.453,50.965V42.343L78.572,25.137v8.621Z" fill="none" stroke="#050304" stroke-linejoin="round" stroke-width="0.459"/>
      </g>
    </g>
    <path id="Path_1601" data-name="Path 1601" d="M78.612,33.758,58.73,50.965V42.343L78.612,25.137v8.621Z" fill="#fff"/>
    <g id="Group_139" data-name="Group 139">
      <g id="Group_138" data-name="Group 138" clip-path="url(#clip-path)">
        <path id="Path_1602" data-name="Path 1602" d="M78.612,33.758,58.73,50.965V42.343L78.612,25.137v8.621Z" fill="none" stroke="#050304" stroke-linejoin="round" stroke-width="0.459"/>
      </g>
    </g>
    <path id="Path_1603" data-name="Path 1603" d="M38.879,33.758,19,50.965V42.343L38.879,25.137v8.621Z" fill="#fff"/>
    <g id="Group_141" data-name="Group 141">
      <g id="Group_140" data-name="Group 140" clip-path="url(#clip-path)">
        <path id="Path_1604" data-name="Path 1604" d="M38.879,33.758,19,50.965V42.343L38.879,25.137v8.621Z" fill="none" stroke="#050304" stroke-linejoin="round" stroke-width="0.459"/>
      </g>
    </g>
    <path id="Path_1605" data-name="Path 1605" d="M38.888,33.758,58.771,50.965V42.343L38.888,25.137v8.621Z" fill="#fff"/>
    <g id="Group_143" data-name="Group 143">
      <g id="Group_142" data-name="Group 142" clip-path="url(#clip-path)">
        <path id="Path_1606" data-name="Path 1606" d="M38.888,33.758,58.771,50.965V42.343L38.888,25.137v8.621Z" fill="none" stroke="#050304" stroke-linejoin="round" stroke-width="0.459"/>
      </g>
    </g>
    <path id="Path_1607" data-name="Path 1607" d="M58.616,50.815,78.5,68.021V59.4L58.616,42.195v8.62Z" fill="#fff"/>
    <g id="Group_145" data-name="Group 145">
      <g id="Group_144" data-name="Group 144" clip-path="url(#clip-path)">
        <path id="Path_1608" data-name="Path 1608" d="M58.616,50.815,78.5,68.021V59.4L58.616,42.195v8.62Z" fill="none" stroke="#050304" stroke-linejoin="round" stroke-width="0.459"/>
      </g>
    </g>
    <path id="Path_1609" data-name="Path 1609" d="M38.686,48.1H31.28V40.694h7.406V48.1Z" fill="#fd9c19"/>
  </g>
</svg>
