<?xml version="1.0" encoding="UTF-8"?><svg id="Layer_3" xmlns="http://www.w3.org/2000/svg" viewBox="0 0 200 200"><defs><style>.cls-1{stroke-miterlimit:10;}.cls-1,.cls-2{fill:none;stroke:#231f20;stroke-width:1.5px;}.cls-2{stroke-linejoin:round;}.cls-3{fill:#f79021;}</style></defs><rect class="cls-3" x="-9.87" y="-9.77" width="218.53" height="218.53"/><path class="cls-1" d="M139.93,153.18l-4.25-34.84c16.04-9.51,25.11-69.32-22.92-78.59-48.02-9.27-57.12,35.62-56.28,44.89,.84,9.27-7.58,31.17-7.58,31.17l10.11,4.21s-.84,16.01,0,19.38,18.54,6.74,26.96,5.9l4.75,16.87"/><path class="cls-1" d="M133.16,96.96l2.86-10.51,4.81,.03c.43-6.02-.57-11.93-2.77-17.31l-3.51,1-5.41-9.46,2.31-2.29c-3.42-3.94-7.67-7.21-12.57-9.53l-2.62,4.71-10.51-2.86,.03-5.42c-5.71-.52-11.34,.26-16.53,2.13l1.12,3.94-9.46,5.41-2.94-2.97c-4.19,3.4-7.69,7.7-10.18,12.71l4.18,2.33-2.86,10.51-5.11-.03c-.66,5.69-.02,11.32,1.72,16.53l3.99-1.08,5.29,9.52-3.15,3.04c3.65,4.72,8.43,8.62,14.05,11.26l2.4-4.31,10.51,2.86-.03,4.96c5.96,.56,11.84-.29,17.22-2.33l-.97-3.58,9.53-5.29,2.41,2.49c4.49-3.71,8.17-8.45,10.64-14.01l-4.44-2.47Zm-38.27,14.15c-15.12-4.12-24.03-19.71-19.92-34.82,4.12-15.12,19.71-24.03,34.82-19.92,15.12,4.12,24.03,19.71,19.92,34.82-4.12,15.12-19.71,24.03-34.82,19.92Z"/><g><g><path class="cls-2" d="M93.9,97.55v2.59c0,1.06,1.02,1.37,2.08,1.4,.32,1.33,2.3,2.96,4.21,2.96v-7.46"/><path class="cls-2" d="M97.19,64.23c-4.68,.91-8.45,4.67-9.39,9.34-.66,3.32,.04,6.45,1.64,8.95,1.95,3.05,2.77,6.68,2.77,10.3v2.35c0,1.03,.83,1.86,1.86,1.86h6.12l.24-32.81s-2.12-.21-3.23,0Z"/></g><path class="cls-2" d="M100.42,64.23v40.28c7.02,2.6,13.25-3.64,12.21-6.5,.11,1.3,8.06-3.54,4.42-13.33,0,0,4.45-7.07,.95-11.35-2.3-2.82-5.37-2.86-5.37-2.86,2.34-4.68-7.28-11.43-12.21-6.24Z"/><path class="cls-2" d="M105.51,72.49c1.82,1.22,4.25,1.06,5.9-.37,1.63-1.42,1.68-3.78,.75-5.75"/><path class="cls-2" d="M104.17,84.81s-.3,1.42,2.09,3.51c2.39,2.09,5.97,1.08,6.79-1.75,.79-2.73,3.67-2.86,4-1.89"/><path class="cls-2" d="M100.42,78.09c.76,1.48,2.35,2.23,3.75,1.87,1.53-.4,2.11-1.95,2.16-2.09"/><path class="cls-2" d="M104.09,95.18c2.67,1.7,3.95,1.59,4.63,1.19,.91-.54,.92-1.72,2.09-2.31,.9-.46,1.9-.27,2.54-.07"/><path class="cls-2" d="M104.69,100.26c-.23,.27-1.06,1.2-2.31,1.27-.35,.02-.94,.05-1.42-.37-.51-.45-.54-1.12-.54-1.27"/></g></svg>