<?xml version="1.0" encoding="UTF-8"?><svg id="Layer_3" xmlns="http://www.w3.org/2000/svg" viewBox="0 0 200 200"><defs><style>.cls-1{stroke-linejoin:round;}.cls-1,.cls-2,.cls-3,.cls-4{stroke:#fff;stroke-width:1.5px;}.cls-1,.cls-3,.cls-4{fill:none;}.cls-5{fill:#7f8080;}.cls-2{fill:#fff;}.cls-2,.cls-3,.cls-4{stroke-miterlimit:10;}.cls-4{stroke-linecap:round;}</style></defs><rect class="cls-5" x="-14.41" y="-10.66" width="228.51" height="223.66"/><g><g><polyline class="cls-3" points="157.96 126.16 157.96 138.91 42.52 138.91 42.52 125.11"/><polyline class="cls-3" points="157.96 88.6 157.96 43.84 42.52 43.84 42.52 85.19"/><polyline class="cls-3" points="63.61 132.67 152.73 132.67 152.73 122.94"/><polyline class="cls-3" points="152.73 81.79 152.73 49.55 47.75 49.55 47.75 80.37"/></g><polyline class="cls-3" points="104.26 147.45 104.26 138.91 96.83 138.91 96.83 147.44"/><rect class="cls-3" x="77.73" y="147.75" width="45.61" height="5.96" transform="translate(201.08 301.46) rotate(-180)"/><circle class="cls-3" cx="137.32" cy="100.23" r="20.36"/><circle class="cls-3" cx="137.32" cy="100.23" r="16.9"/><path class="cls-4" d="M150.92,115.38l14.99,11.83c5.49,3.79,9.1-2.59,4.41-5.76l-14.83-12.06-1.39,2.19c-.47,.73-1,1.42-1.59,2.06l-1.61,1.74Z"/><g><polyline class="cls-1" points="104.49 97.82 82.52 97.82 82.52 87.31 72.85 84.22 77.62 78.71 82.52 73.05 82.52 62.79 97.53 62.79"/><line class="cls-2" x1="91.82" y1="80.3" x2="76.24" y2="80.3"/><polyline class="cls-3" points="110.73 70.27 88.67 70.27 82.52 73.05"/><polyline class="cls-3" points="106.38 85.49 94.31 91.33 82.52 91.33"/><circle class="cls-3" cx="98.58" cy="62.29" r="1.96"/><circle class="cls-3" cx="112.13" cy="70.27" r="1.96"/><circle class="cls-3" cx="93.42" cy="80.3" r="1.96"/><circle class="cls-3" cx="107.77" cy="85.49" r="1.96"/><circle class="cls-3" cx="106.38" cy="97.82" r="1.96"/><circle class="cls-3" cx="97.33" cy="105.68" r="1.96"/><polyline class="cls-1" points="82.52 97.82 86.66 105.68 95.38 105.68"/></g><path class="cls-3" d="M75.72,92.13c-4.14,0-7.58-3-8.28-6.94h-19.08c-.7,3.94-4.13,6.94-8.28,6.94-.27,0-.53-.02-.79-.04v24.66l18.72,13.34,18.61-14.28v-23.73c-.3,.03-.6,.05-.91,.05Zm-19.38,31.68l-.05,.04-11.97-8.53v-7.7h12.02v16.2Zm15.28-19.24h-12.55v-14.36h6.3c1.2,2.42,3.53,4.08,6.25,4.4v9.95Z"/><path class="cls-3" d="M133.44,95.93c0-2.54,1.63-5.06,4.42-5.06s4.53,2.27,4.53,5.06"/><path class="cls-3" d="M131.09,95.93c0-4.4,3.71-7.54,6.75-7.54,3.35,0,6.91,2.48,6.91,7.54"/><path class="cls-3" d="M131.95,97.42h11.94c1.03,0,1.86,.84,1.86,1.86v7.21c0,2.86-2.32,5.18-5.18,5.18h-5.3c-2.86,0-5.18-2.32-5.18-5.18v-7.21c0-1.03,.84-1.86,1.86-1.86Z"/><path class="cls-3" d="M139.33,103.5c0-.92-.75-1.67-1.67-1.67s-1.67,.75-1.67,1.67c0,.62,.35,1.16,.86,1.45v1.96h1.64v-1.97c.5-.29,.84-.82,.84-1.44Z"/><polyline class="cls-1" points="52.81 132.67 48.59 132.67 48.59 130.22"/></g></svg>