<?xml version="1.0" encoding="UTF-8"?><svg id="Layer_3" xmlns="http://www.w3.org/2000/svg" viewBox="0 0 200 200"><defs><style>.cls-1{fill:#7f8080;}.cls-2{fill:none;stroke:#fff;stroke-miterlimit:10;stroke-width:1.5px;}</style></defs><rect class="cls-1" x="-10.66" y="-10.66" width="227.42" height="223.66"/><g><rect class="cls-2" x="74.32" y="53.77" width="39.63" height="17.87" transform="translate(77.58 -49.18) rotate(47.91)"/><path class="cls-2" d="M108.36,114.79c1.5,.27,3.11-.12,4.34-1.23l31.02-28.02c2.09-1.89,2.25-5.11,.37-7.2l-10.12-11.21c-1.89-2.09-5.11-2.25-7.2-.37l-31.02,28.02c-1.22,1.1-1.78,2.66-1.66,4.19l-2.78-3.07-6.96,6.29,2.81,3.11-4.97,4.49,14.22,15.74,4.97-4.49,2.81,3.11,6.96-6.29-2.78-3.07Z"/><rect class="cls-2" x="134.88" y="67.15" width="13.25" height="6.7" transform="translate(98.98 -81.77) rotate(47.91)"/><path class="cls-2" d="M84.23,144.41l-11.1-12.29-11.1-12.29c6.79-6.13,17.26-5.6,23.39,1.19,6.13,6.79,5.6,17.26-1.19,23.39Z"/><rect class="cls-2" x="80.32" y="53.96" width="27.84" height="17.81" transform="translate(77.73 -49.21) rotate(47.91)"/><rect class="cls-2" x="87.32" y="53.27" width="12.59" height="17.81" transform="translate(77.02 -48.97) rotate(47.91)"/><rect class="cls-2" x="106.19" y="77.15" width="4.93" height="4.93" transform="translate(94.92 -54.39) rotate(47.91)"/><line class="cls-2" x1="80.85" y1="48" x2="107.37" y2="77.36"/><line class="cls-2" x1="100.23" y1="56.21" x2="87.01" y2="68.15"/><rect class="cls-2" x="124.63" y="109.48" width="39.63" height="17.87" transform="translate(153.38 304.98) rotate(-132.09)"/><rect class="cls-2" x="130.42" y="109.35" width="27.84" height="17.81" transform="translate(153.33 304.64) rotate(-132.09)"/><rect class="cls-2" x="138.67" y="110.04" width="12.59" height="17.81" transform="translate(153.85 306.25) rotate(-132.09)"/><rect class="cls-2" x="127.45" y="99.04" width="4.93" height="4.93" transform="translate(141.67 265.96) rotate(-132.09)"/><line class="cls-2" x1="157.73" y1="133.12" x2="131.21" y2="103.76"/><line class="cls-2" x1="138.36" y1="124.92" x2="151.58" y2="112.98"/><rect class="cls-2" x="122.95" y="78.46" width="14.03" height="5.32" transform="translate(103.06 -69.71) rotate(47.91)"/><rect class="cls-2" x="111.96" y="88.58" width="14.03" height="4.93" transform="translate(106.81 -58.28) rotate(47.91)"/><line class="cls-2" x1="89.38" y1="117.78" x2="85.59" y2="121.21"/><circle class="cls-2" cx="69.15" cy="135.71" r="2.21"/><line class="cls-2" x1="70.79" y1="134.23" x2="73.13" y2="132.12"/><path class="cls-2" d="M59.32,133.82c-1.19,7.32,6.06,13.6,13.1,11.46"/><path class="cls-2" d="M53.37,134.25c-.73,10.29,8.63,18.94,18.82,17.1"/><path class="cls-2" d="M48.06,133.73c-1.74,13.66,10.76,25.58,24.28,22.92"/></g></svg>