<?xml version="1.0" encoding="UTF-8"?><svg id="Layer_3" xmlns="http://www.w3.org/2000/svg" viewBox="0 0 200 200"><defs><style>.cls-1{stroke-linejoin:round;}.cls-1,.cls-2,.cls-3{fill:none;stroke:#fff;stroke-width:1.5px;}.cls-4{fill:#7f8080;}.cls-2,.cls-3{stroke-miterlimit:10;}.cls-3{stroke-linecap:round;}</style></defs><rect class="cls-4" x="-12.7" y="-10.66" width="226.72" height="223.66"/><g><g><polyline class="cls-2" points="50.76 95.81 50.76 48.45 120.79 48.45 120.79 64.74"/><line class="cls-2" x1="87.39" y1="95.81" x2="77.01" y2="95.81"/><polyline class="cls-2" points="120.79 82.08 120.79 95.81 112.58 95.81"/><circle class="cls-2" cx="137.67" cy="55.51" r="9.7"/><path class="cls-2" d="M127.97,86.02v-7.59h-11.48c-2.85,0-5.52-1.39-7.15-3.73l-2.26-3.25c-.8-1.15,.02-2.72,1.42-2.72h32.97c5.36,0,9.7,4.34,9.7,9.7v24.05h-2.13"/></g><g><ellipse class="cls-2" cx="79.06" cy="116.58" rx="11.09" ry="10.93"/><ellipse class="cls-2" cx="118.46" cy="116.58" rx="11.09" ry="10.93"/><path class="cls-2" d="M66.78,130.5h24.77c2.6,0,4.71,2.11,4.71,4.71v19.07H62.08v-19.07c0-2.6,2.11-4.71,4.71-4.71Z"/><path class="cls-2" d="M106.28,130.5h24.36c2.6,0,4.71,2.11,4.71,4.71v19.07h-33.77v-19.07c0-2.6,2.11-4.71,4.71-4.71Z"/><g><ellipse class="cls-2" cx="63.33" cy="97.46" rx="9.14" ry="9"/><ellipse class="cls-2" cx="100.14" cy="97.05" rx="9.14" ry="9"/><ellipse class="cls-2" cx="134.62" cy="97.46" rx="9.14" ry="9"/><path class="cls-2" d="M67.18,109.39h-11.38c-3.52,0-6.38,2.72-6.38,6.07v13.78h10.95"/><path class="cls-2" d="M131.15,109.39h11.38c3.52,0,6.38,2.72,6.38,6.07v13.78h-11.24"/><line class="cls-2" x1="93.59" y1="109.39" x2="104.53" y2="109.39"/><line class="cls-2" x1="97.83" y1="129.24" x2="100.14" y2="129.24"/></g></g><g><g><path class="cls-1" d="M81.49,80.65c0,.51,.49,1.48,1,1.5,.16,.64,.83,1.38,1.74,1.38s1.67-.48,1.83-1.12c.51-.02,.91-1.25,.91-1.76"/><path class="cls-1" d="M90.01,69.16c0-3.57-3.24-6.39-6.95-5.67-2.24,.44-4.05,2.24-4.5,4.48-.32,1.59,.02,3.09,.78,4.29,.93,1.46,1.33,3.2,1.33,4.94v1.13c0,.49,.4,.89,.89,.89h5.32c.49,0,.89-.4,.89-.89v-.86c0-1.84,.4-3.7,1.37-5.27,.54-.88,.86-1.92,.86-3.03Z"/></g><line class="cls-3" x1="84.23" y1="60.52" x2="84.23" y2="55.51"/><line class="cls-3" x1="89.22" y1="61.89" x2="92.53" y2="57.48"/><line class="cls-3" x1="92.16" y1="65.22" x2="97.19" y2="64.25"/><line class="cls-3" x1="79.47" y1="61.89" x2="76.15" y2="57.83"/><line class="cls-3" x1="76.3" y1="65.18" x2="71.27" y2="64.25"/><line class="cls-3" x1="75.86" y1="69.77" x2="72.58" y2="71.52"/><line class="cls-3" x1="92.53" y1="69.77" x2="95.81" y2="71.52"/></g></g></svg>