<svg xmlns="http://www.w3.org/2000/svg" width="125.8" height="80.81" viewBox="0 0 125.8 80.81">
  <g id="land-icon-fms" transform="translate(-37.25 -60.86)">
    <g id="Group_219" data-name="Group 219">
      <path id="Path_137" data-name="Path 137" d="M148.55,108.9H46.52l1.47-5.73,19.3-2.72,6.95-3.01h71.98Z" fill="none" stroke="#231f20" stroke-miterlimit="10" stroke-width="1.5"/>
      <path id="Path_138" data-name="Path 138" d="M140.94,140.92H52.03l-3.02-7.31-3.68-4.54L38,112.19H154.97l-7.94,18.28-3.6,3.88Z" fill="none" stroke="#231f20" stroke-linejoin="round" stroke-width="1.5"/>
      <rect id="Rectangle_245" data-name="Rectangle 245" width="5.16" height="10.89" rx="0.66" transform="translate(157.14 78.68)" fill="none" stroke="#231f20" stroke-miterlimit="10" stroke-width="1.5"/>
      <path id="Path_139" data-name="Path 139" d="M122.77,75.32H109.38l6.59,17.71h6.81a2.8,2.8,0,0,0,2.66-2.93V78.25a2.8,2.8,0,0,0-2.66-2.93Z" fill="none" stroke="#231f20" stroke-miterlimit="10" stroke-width="1.5"/>
      <rect id="Rectangle_246" data-name="Rectangle 246" width="31.31" height="4.91" transform="translate(125.42 81.67)" fill="none" stroke="#231f20" stroke-miterlimit="10" stroke-width="1.5"/>
      <ellipse id="Ellipse_113" data-name="Ellipse 113" cx="6.26" cy="6.9" rx="6.26" ry="6.9" transform="translate(56.16 122.93)" fill="none" stroke="#231f20" stroke-miterlimit="10" stroke-width="1.5"/>
      <ellipse id="Ellipse_114" data-name="Ellipse 114" cx="6.26" cy="6.9" rx="6.26" ry="6.9" transform="translate(73.16 122.93)" fill="none" stroke="#231f20" stroke-miterlimit="10" stroke-width="1.5"/>
      <ellipse id="Ellipse_115" data-name="Ellipse 115" cx="6.26" cy="6.9" rx="6.26" ry="6.9" transform="translate(90.16 122.93)" fill="none" stroke="#231f20" stroke-miterlimit="10" stroke-width="1.5"/>
      <ellipse id="Ellipse_116" data-name="Ellipse 116" cx="6.26" cy="6.9" rx="6.26" ry="6.9" transform="translate(107.17 122.93)" fill="none" stroke="#231f20" stroke-miterlimit="10" stroke-width="1.5"/>
      <ellipse id="Ellipse_117" data-name="Ellipse 117" cx="6.26" cy="6.9" rx="6.26" ry="6.9" transform="translate(124.17 122.93)" fill="none" stroke="#231f20" stroke-miterlimit="10" stroke-width="1.5"/>
      <ellipse id="Ellipse_118" data-name="Ellipse 118" cx="3.62" cy="3.99" rx="3.62" ry="3.99" transform="translate(47.56 116.48)" fill="none" stroke="#231f20" stroke-miterlimit="10" stroke-width="1.5"/>
      <ellipse id="Ellipse_119" data-name="Ellipse 119" cx="3.62" cy="3.99" rx="3.62" ry="3.99" transform="translate(137.46 116.48)" fill="none" stroke="#231f20" stroke-miterlimit="10" stroke-width="1.5"/>
      <rect id="Rectangle_247" data-name="Rectangle 247" width="16.18" height="10.82" transform="translate(77.84 61.61)" fill="none" stroke="#231f20" stroke-miterlimit="10" stroke-width="1.5"/>
      <line id="Line_106" data-name="Line 106" x2="77.01" transform="translate(57.93 117.36)" fill="none" stroke="#231f20" stroke-miterlimit="10" stroke-width="1.5"/>
      <path id="Path_140" data-name="Path 140" d="M112.78,97.44H62.46c-2.2,0-3.98-2.21-3.98-4.93V80.26c0-2.73,1.78-4.93,3.98-4.93h42.56l7.77,22.12Z" fill="none" stroke="#231f20" stroke-miterlimit="10" stroke-width="1.5"/>
    </g>
  </g>
</svg>
