<svg xmlns="http://www.w3.org/2000/svg" width="107.167" height="110.667" viewBox="0 0 107.167 110.667">
  <g id="sea-icon-fms" transform="translate(-51.116 -43.28)">
    <g id="Group_229" data-name="Group 229">
      <path id="Path_147" data-name="Path 147" d="M157.24,141.35c-1.71,2.49-4.49,2.49-6.21,0l-2.01-2.92c-1.71-2.49-4.49-2.49-6.21,0l-1.94,2.82c-1.71,2.49-4.49,2.49-6.21,0l-2.1-3.05c-1.71-2.49-4.49-2.49-6.21,0l-2.32,3.37c-1.71,2.49-4.49,2.49-6.21,0l-2.15-3.12c-1.71-2.49-4.49-2.49-6.21,0l-1.67,2.43c-1.71,2.49-4.49,2.49-6.21,0l-1.94-2.82c-1.71-2.49-4.49-2.49-6.21,0l-2.15,3.13c-1.71,2.49-4.49,2.49-6.21,0l-2.02-2.94c-1.71-2.49-4.49-2.49-6.21,0l-2.07,3.01c-1.71,2.49-4.49,2.49-6.21,0l-2.04-2.97c-1.71-2.49-4.49-2.49-6.21,0l-1.94,2.82c-1.71,2.49-4.49,2.49-6.21,0" fill="none" stroke="#231f20" stroke-linecap="round" stroke-miterlimit="10" stroke-width="1.5"/>
      <path id="Path_148" data-name="Path 148" d="M58.39,150.87l1.94-2.82c1.71-2.49,4.49-2.49,6.21,0l2.04,2.97c1.71,2.49,4.49,2.49,6.21,0l2.07-3.01c1.71-2.49,4.49-2.49,6.21,0l2.02,2.94c1.71,2.49,4.49,2.49,6.21,0l2.15-3.13c1.71-2.49,4.49-2.49,6.21,0l1.94,2.82c1.71,2.49,4.49,2.49,6.21,0l1.67-2.43c1.71-2.49,4.49-2.49,6.21,0l2.15,3.12c1.71,2.49,4.49,2.49,6.21,0l2.32-3.37c1.71-2.49,4.49-2.49,6.21,0l2.1,3.05c1.71,2.49,4.49,2.49,6.21,0l1.94-2.82c1.71-2.49,4.49-2.49,6.21,0l2.01,2.92" fill="none" stroke="#231f20" stroke-linecap="round" stroke-miterlimit="10" stroke-width="1.5"/>
      <rect id="Rectangle_255" data-name="Rectangle 255" width="4.07" height="19.25" rx="0.75" transform="translate(103 44.03)" fill="none" stroke="#231f20" stroke-miterlimit="10" stroke-width="1.5"/>
      <path id="Path_149" data-name="Path 149" d="M102.75,49.13H94.51a.01.01,0,1,0,0,.02h8.24v-.02Z" fill="none" stroke="#231f20" stroke-miterlimit="10" stroke-width="1.5"/>
      <path id="Path_150" data-name="Path 150" d="M115.65,49.13h-7.92v.02h7.92a.01.01,0,1,0,0-.02Z" fill="none" stroke="#231f20" stroke-miterlimit="10" stroke-width="1.5"/>
      <path id="Path_151" data-name="Path 151" d="M102.39,54.42H97a.01.01,0,1,0,0,.02h5.39v-.02Z" fill="none" stroke="#231f20" stroke-miterlimit="10" stroke-width="1.5"/>
      <path id="Path_152" data-name="Path 152" d="M113.16,54.42h-5.73v.02h5.73a.01.01,0,1,0,0-.02Z" fill="none" stroke="#231f20" stroke-miterlimit="10" stroke-width="1.5"/>
      <path id="Path_153" data-name="Path 153" d="M85.25,63.28V92.63l19.83-10.81,19.83,10.81V63.28H85.26Zm11.86,9.97h-7.2V67.99h7.2Zm11.57,0h-7.2V67.99h7.2Zm11.65,0h-7.2V67.99h7.2Z" fill="none" stroke="#231f20" stroke-miterlimit="10" stroke-width="1.5"/>
      <path id="Path_154" data-name="Path 154" d="M101.63,88.81V129.6a6.6,6.6,0,0,0-5.09-2.56,6.73,6.73,0,0,0-5.51,3.14l-2.15,3.13c-.28.41-.55.56-.69.56s-.41-.15-.69-.56l-2.02-2.94a6.747,6.747,0,0,0-5.52-3.13,6.482,6.482,0,0,0-4.8,2.24l-6.78-22.53,33.26-18.13m1.5-2.53L66.6,106.22l8,26.59,1.09-1.59a4.923,4.923,0,0,1,8.56,0l2.02,2.94a2.144,2.144,0,0,0,3.86,0l2.15-3.13a4.923,4.923,0,0,1,8.56,0l1.94,2.83a3.261,3.261,0,0,0,.36.44V86.29h0Z" fill="#231f20"/>
      <path id="Path_155" data-name="Path 155" d="M107.82,88.81l33.26,18.13-6.77,22.52a6.521,6.521,0,0,0-4.84-2.28,6.76,6.76,0,0,0-5.52,3.14l-2.32,3.37c-.28.41-.55.56-.69.56s-.41-.15-.69-.56l-2.15-3.12a6.758,6.758,0,0,0-5.52-3.14,6.5,6.5,0,0,0-4.76,2.19V88.8m-1.5-2.53v47.95a3.934,3.934,0,0,0,.31-.38l1.67-2.43a4.923,4.923,0,0,1,8.56,0l2.15,3.12a2.144,2.144,0,0,0,3.86,0l2.32-3.37a4.923,4.923,0,0,1,8.56,0l1.12,1.63,8-26.59L106.33,86.27h0Z" fill="#231f20"/>
      <path id="Path_156" data-name="Path 156" d="M80,76.19v17.4l-6.59,3.65V82.22L80,76.19m1.5-3.41-9.59,8.77V99.78l9.59-5.31V72.78Z" fill="#231f20"/>
      <path id="Path_157" data-name="Path 157" d="M129.53,76.19l6.59,6.03V97.24l-6.59-3.65V76.19m-1.5-3.41V94.47l9.59,5.31V81.55l-9.59-8.77Z" fill="#231f20"/>
      <circle id="Ellipse_139" data-name="Ellipse 139" cx="4.74" cy="4.74" r="4.74" transform="translate(76.76 107.58)" fill="none" stroke="#231f20" stroke-miterlimit="10" stroke-width="1.5"/>
      <circle id="Ellipse_140" data-name="Ellipse 140" cx="4.74" cy="4.74" r="4.74" transform="translate(122.75 107.58)" fill="none" stroke="#231f20" stroke-miterlimit="10" stroke-width="1.5"/>
    </g>
  </g>
</svg>
